<mxfile>
    <diagram id="XWT5a98cfEyAcjVvCznP" name="Page-1">
        <mxGraphModel dx="1488" dy="479" grid="1" gridSize="10" guides="1" tooltips="1" connect="1" arrows="1" fold="1" page="1" pageScale="1" pageWidth="850" pageHeight="1100" math="0" shadow="0">
            <root>
                <mxCell id="0"/>
                <mxCell id="1" parent="0"/>
                <mxCell id="2" value="Bugs" style="text;html=1;strokeColor=#6F0000;fillColor=#a20025;align=center;verticalAlign=middle;whiteSpace=wrap;rounded=0;fontColor=#ffffff;" vertex="1" parent="1">
                    <mxGeometry y="20" width="280" height="20" as="geometry"/>
                </mxCell>
                <mxCell id="3" value="Fixed" style="text;html=1;strokeColor=#2D7600;fillColor=#60a917;align=center;verticalAlign=middle;whiteSpace=wrap;rounded=0;fontColor=#ffffff;" vertex="1" parent="1">
                    <mxGeometry x="560" y="20" width="280" height="20" as="geometry"/>
                </mxCell>
                <mxCell id="4" value="In Progress" style="text;html=1;strokeColor=#001DBC;fillColor=#0050ef;align=center;verticalAlign=middle;whiteSpace=wrap;rounded=0;fontColor=#ffffff;" vertex="1" parent="1">
                    <mxGeometry x="280" y="20" width="280" height="20" as="geometry"/>
                </mxCell>
                <mxCell id="6" value="" style="endArrow=none;dashed=1;html=1;dashPattern=1 3;strokeWidth=2;" edge="1" parent="1">
                    <mxGeometry width="50" height="50" relative="1" as="geometry">
                        <mxPoint x="280" y="1080" as="sourcePoint"/>
                        <mxPoint x="280" y="40" as="targetPoint"/>
                    </mxGeometry>
                </mxCell>
                <mxCell id="7" value="" style="endArrow=none;dashed=1;html=1;dashPattern=1 3;strokeWidth=2;" edge="1" parent="1">
                    <mxGeometry width="50" height="50" relative="1" as="geometry">
                        <mxPoint x="560" y="1080" as="sourcePoint"/>
                        <mxPoint x="560" y="40" as="targetPoint"/>
                    </mxGeometry>
                </mxCell>
                <mxCell id="10" value="When leave 07D3 the transparent barrier opened by puzzle in AA6C appears again and only dissapear if player enters AA6C" style="rounded=1;whiteSpace=wrap;html=1;align=left;" vertex="1" parent="1">
                    <mxGeometry y="50" width="280" height="60" as="geometry"/>
                </mxCell>
                <mxCell id="11" value="Once the customer exists the game and enters agains with a save state, the last checkpoint is not loaded and customer respawn in 1979 if died" style="rounded=1;whiteSpace=wrap;html=1;align=left;" vertex="1" parent="1">
                    <mxGeometry y="120" width="280" height="60" as="geometry"/>
                </mxCell>
                <mxCell id="12" value="When player jump and holds left and right the player falls thought floor" style="rounded=1;whiteSpace=wrap;html=1;align=left;" vertex="1" parent="1">
                    <mxGeometry y="190" width="280" height="60" as="geometry"/>
                </mxCell>
                <mxCell id="13" value="When player jump touching a wall it hits an ivisible ceiling" style="rounded=1;whiteSpace=wrap;html=1;align=left;" vertex="1" parent="1">
                    <mxGeometry y="260" width="280" height="60" as="geometry"/>
                </mxCell>
                <mxCell id="14" value="Hearth drop from enemy is not adding to players health" style="rounded=1;whiteSpace=wrap;html=1;align=left;" vertex="1" parent="1">
                    <mxGeometry y="330" width="280" height="60" as="geometry"/>
                </mxCell>
                <mxCell id="15" value="Features" style="text;html=1;strokeColor=#A50040;fillColor=#d80073;align=center;verticalAlign=middle;whiteSpace=wrap;rounded=0;fontColor=#ffffff;" vertex="1" parent="1">
                    <mxGeometry x="-280" y="20" width="280" height="20" as="geometry"/>
                </mxCell>
                <mxCell id="16" value="Create Numeric Switch for use with Code Puzzles" style="rounded=1;whiteSpace=wrap;html=1;align=left;" vertex="1" parent="1">
                    <mxGeometry x="-280" y="50" width="280" height="60" as="geometry"/>
                </mxCell>
                <mxCell id="17" value="Verify sound for all game objects such as switch, levers, etc" style="rounded=1;whiteSpace=wrap;html=1;align=left;" vertex="1" parent="1">
                    <mxGeometry x="-280" y="120" width="280" height="60" as="geometry"/>
                </mxCell>
                <mxCell id="18" value="Create new enemy that shoots" style="rounded=1;whiteSpace=wrap;html=1;align=left;" vertex="1" parent="1">
                    <mxGeometry x="-280" y="190" width="280" height="60" as="geometry"/>
                </mxCell>
                <mxCell id="19" value="Limit fire and rate of fire by weapon" style="rounded=1;whiteSpace=wrap;html=1;align=left;" vertex="1" parent="1">
                    <mxGeometry x="-280" y="260" width="280" height="60" as="geometry"/>
                </mxCell>
            </root>
        </mxGraphModel>
    </diagram>
</mxfile>